<?xml version="1.0" encoding="utf-8"?>
<!-- Generator: Adobe Illustrator 27.2.0, SVG Export Plug-In . SVG Version: 6.00 Build 0)  -->
<svg version="1.1" id="Layer_1" xmlns="http://www.w3.org/2000/svg" xmlns:xlink="http://www.w3.org/1999/xlink" x="0px" y="0px"
	 viewBox="0 0 1920 1356.8" style="enable-background:new 0 0 1920 1356.8;" xml:space="preserve">
<style type="text/css">
	.st0{fill:#20433C;}
	.st1{clip-path:url(#SVGID_00000146486587041703398380000001994810365142784128_);}
	.st2{fill:#F8EFE6;}
	.st3{fill:#BFA78F;}
	.st4{fill:#8A9D88;}
</style>
<path id="Path_98" class="st0" d="M-0.4,1.7h1920v1315.1H-0.4V1.7z"/>
<g id="Group_4" transform="translate(0 73)">
	<g>
		<defs>
			<rect id="SVGID_1_" x="-19.9" y="-84.1" width="1954.6" height="951.8"/>
		</defs>
		<clipPath id="SVGID_00000127756181346347528410000014055722168680549253_">
			<use xlink:href="#SVGID_1_"  style="overflow:visible;"/>
		</clipPath>
		<g id="Group_3" style="clip-path:url(#SVGID_00000127756181346347528410000014055722168680549253_);">
			<path id="Path_1" class="st2" d="M1728.8-75.1c0,0-11.5,16.9-23.4,25.6c-15.5,11.3-46.1,0-51.6,32.3
				c-4.8,28.3,29.2,29.4,33.5,44.9c6.8,24.6-36.7,35.9-41.2,62.7c-6.4,37.7,33.6,25.7,39.6,37.5c11.2,22.1-61.3,61.7-17.9,89
				c43.2,27.1,80.2-28.5,91.4-47.8c13-22.2,20,13.1,49.8,5.1c51.3-13.8,10.9-57,27.5-73.3c8.2-8.1,21.7,14.4,46.2,1.7
				c37.1-19.3,19.4-52.4,29.2-66.8c5.1-7.5,8.1-4.2,8.1-4.2V-76.3L1728.8-75.1z"/>
			<path id="Path_2" class="st0" d="M1666,215.6l-4-3c0.9-1.2,87-118,122.1-157.6c28.5-32,110.3-128.8,111.2-129.8h5
				c-0.8,1-83.9,101.1-112.4,133.2C1752.8,97.8,1666.9,214.5,1666,215.6"/>
			<path id="Path_3" class="st0" d="M1881,105.2c-0.1-0.4-8.9-37.8-22.7-65.3c-10-20-24.1-40.2-24.2-40.4l4.1-2.9
				c0.1,0.2,14.4,20.7,24.6,41c14.1,28,23.1,66,23.1,66.4L1881,105.2z"/>
			<path id="Path_4" class="st0" d="M1645.6,101.8l-2.5-4.3c1-0.6,25.1-14.5,48.9-19.9c47-10.7,72.2,5.1,73.2,5.7l-2.7,4.2
				c-0.2-0.2-24.6-15.3-69.4-5.1C1670.1,87.7,1645.9,101.6,1645.6,101.8"/>
			<path id="Path_5" class="st0" d="M1819.2,19c-0.3-0.2-28.1-18.9-76.5-24.1c-37.4-3.9-89.9,7.2-90.5,7.4l-1.1-4.9
				c0.5-0.1,53.8-11.5,92.1-7.4c49.8,5.3,77.6,24.1,78.8,24.9L1819.2,19z"/>
			<path id="Path_6" class="st2" d="M-4.6,692.6c0,0,14.5-22,30.7-25.7c14.7-3.3,79.6,2.3,94.1-26.4c12.9-25.5-29.4-28.2-20.6-36.6
				c17.9-17.2,95.7-12.8,104.6-43.6c9.2-31.9-22.1-17-27-34.1c-17-59.8,94.8-49.3,110-84.5c12.5-28.9-10.1-24.7-11-39
				c-2.5-36.9,46.3-48.4,20.2-71c-23.3-20.2-79.1,35.8-107.4,23.5c-17.5-7.6,19.8-38.7-14.2-42.4c-53-5.8-81.9,61.9-109,60
				c-11.4-0.8,14.9-28.3-21.9-30.8c-22.6-1.5-48.4,41.6-48.4,41.6L-4.6,692.6z"/>
			<path id="Path_7" class="st0" d="M-16.4,573.7l-3.6-3.5c0.3-0.3,30.2-30.7,98.7-88.7c99.4-84.2,222.9-149.8,224.1-150.4l2.3,4.4
				C304,336.1,181,401.4,82,485.3C13.8,543.1-16.1,573.4-16.4,573.7"/>
			<path id="Path_8" class="st0" d="M188.6,559.8c-26.9,0-53.8-3.2-79.9-9.5c-27.3-6.6-67.4-29-69.1-30l2.5-4.4
				c0.4,0.2,41.2,23,67.8,29.5c53.9,13.1,98,8.7,98.5,8.6l0.5,5C208.7,559,201.2,559.8,188.6,559.8"/>
			<path id="Path_9" class="st0" d="M124.4,448.3l-5.1,2c0-0.3,3-32.8,16.5-80.8c10.1-35.9,36.6-61,37.7-62.1l3.4,3.7
				c-0.3,0.2-26.6,25.2-36.3,59.8C127.2,418.5,124.4,448,124.4,448.3"/>
			<path id="Path_10" class="st0" d="M241.1,436.6c-33.1,0-72.6-15.9-74.2-16.6l4.5-4.5c0.4,0.2,41.7,17.8,74.8,16
				c31-1.7,45-7,45.1-7.1l1.8,4.7c-0.6,0.2-14.7,5.7-46.7,7.4C244.6,436.6,242.9,436.7,241.1,436.6"/>
			
				<rect id="Rectangle_4" x="1506.9" y="-15.8" transform="matrix(3.242256e-02 -0.9995 0.9995 3.242256e-02 1534.5107 1560.4604)" class="st2" width="132.7" height="7"/>
			<path id="Path_11" class="st2" d="M1552.5,72.3V61.8c0-4.9,3.9-8.8,8.8-8.8h19.5c4.9,0,8.8,3.9,8.8,8.8v10.5
				c0,4.9-3.9,8.8-8.8,8.8h-19.5C1556.5,81,1552.5,77.1,1552.5,72.3"/>
			<rect id="Rectangle_5" x="1561.8" y="78.4" class="st2" width="4.5" height="14"/>
			<rect id="Rectangle_6" x="1574.5" y="78.4" class="st2" width="4.5" height="14"/>
			<path id="Path_12" class="st2" d="M171.4,695.8l-7.2,7.7c-3.3,3.5-8.9,3.7-12.4,0.4c0,0,0,0,0,0l-14.2-13.3
				c-3.5-3.3-3.7-8.9-0.4-12.4l7.2-7.7c3.3-3.5,8.9-3.7,12.4-0.4c0,0,0,0,0,0l14.2,13.3C174.5,686.7,174.7,692.2,171.4,695.8"/>
			<path id="Path_13" class="st2" d="M1815.2,306.3l-8.4,6.2c-3.9,2.9-9.4,2.1-12.3-1.8l-11.6-15.7c-2.9-3.9-2.1-9.4,1.8-12.3
				c0,0,0,0,0,0l8.4-6.2c3.9-2.9,9.4-2.1,12.3,1.8c0,0,0,0,0,0L1817,294C1819.9,297.9,1819.1,303.4,1815.2,306.3"/>
			
				<rect id="Rectangle_7" x="165" y="676.1" transform="matrix(0.6837 -0.7297 0.7297 0.6837 -440.5903 340.0206)" class="st2" width="14" height="4.5"/>
			
				<rect id="Rectangle_8" x="155.6" y="667.3" transform="matrix(0.6837 -0.7297 0.7297 0.6837 -437.1662 330.4512)" class="st2" width="14" height="4.5"/>
			<path id="Path_14" class="st2" d="M-4.4,763.9l-0.3-7c0.4,0,39.1-2,73.6-14.7c43.3-15.9,74.3-48.7,74.6-49l5.1,4.8
				c-1.3,1.4-32.4,34.3-77.3,50.8C35.8,761.9-2.8,763.8-4.4,763.9"/>
			<path id="Path_15" class="st2" d="M1920.6,385.1c-27.8-3.6-59.9-24.9-72.5-33.9c-9.3-6.7-43.4-35.6-46.8-52.4l6.9-1.4
				c2.6,12.7,32,39.5,44,48c25.2,18.1,51.1,30.3,69.3,32.6L1920.6,385.1z"/>
			
				<rect id="Rectangle_9" x="1777.7" y="264.9" transform="matrix(0.8036 -0.5952 0.5952 0.8036 187.0832 1116.7518)" class="st2" width="15.5" height="20"/>
			<path id="Path_16" class="st2" d="M1454.8,61.3c-0.3-1.2-8-30.7,8.1-86.5c8.2-28.5,27.2-56.4,28-57.6l5.8,4
				c-0.2,0.3-19.1,28.2-27,55.6c-15.5,53.7-8.1,82.5-8.1,82.8L1454.8,61.3z"/>
			
				<rect id="Rectangle_10" x="1478.7" y="-41.1" transform="matrix(0.7307 -0.6827 0.6827 0.7307 416.5456 1005.0497)" class="st2" width="7" height="31.3"/>
			<path id="Path_17" class="st2" d="M1422.2,34.2l-5.1-4.8c0.2-0.2,4.5-4.7,16.8-14c7.7-5.6,15.8-10.8,24.2-15.3l3.3,6.2
				c-8.1,4.4-15.9,9.4-23.3,14.8C1426.4,29.8,1422.3,34.1,1422.2,34.2"/>
			<path id="Path_18" class="st3" d="M1462.5,81.9c-6.9,0-12.5-5.6-12.5-12.5c0-6.9,5.6-12.5,12.5-12.5c6.9,0,12.5,5.6,12.5,12.5
				C1475,76.3,1469.4,81.9,1462.5,81.9 M1462.5,63.9c-3,0-5.5,2.5-5.5,5.5c0,3,2.5,5.5,5.5,5.5c3,0,5.5-2.5,5.5-5.5
				C1468,66.4,1465.5,63.9,1462.5,63.9"/>
			<path id="Path_19" class="st3" d="M1502.8,4.1c-6.9,0-12.5-5.6-12.5-12.5c0-6.9,5.6-12.5,12.5-12.5c6.9,0,12.5,5.6,12.5,12.5
				C1515.3-1.5,1509.7,4.1,1502.8,4.1 M1502.8-13.9c-3,0-5.5,2.5-5.5,5.5c0,3,2.5,5.5,5.5,5.5s5.5-2.5,5.5-5.5
				C1508.3-11.4,1505.8-13.9,1502.8-13.9"/>
			<path id="Path_20" class="st3" d="M78.5,102.9c-6.9,0-12.5-5.6-12.5-12.5c0-6.9,5.6-12.5,12.5-12.5S91,83.4,91,90.4
				c0,6.3-4.7,11.6-11,12.4C79.6,102.9,79,102.9,78.5,102.9 M78.5,84.9c-0.2,0-0.5,0-0.7,0c-3,0.4-5.1,3.1-4.8,6.1s3.1,5.1,6.1,4.8
				c3-0.4,5.1-3.1,4.8-6.1C83.6,87,81.3,84.9,78.5,84.9"/>
			<path id="Path_21" class="st3" d="M88.3,161.2c-6.9,0-12.5-5.6-12.5-12.5s5.6-12.5,12.5-12.5s12.5,5.6,12.5,12.5
				c0,6.3-4.7,11.6-10.9,12.4C89.4,161.2,88.9,161.2,88.3,161.2 M88.4,143.2c-0.2,0-0.5,0-0.7,0c-3,0.4-5.1,3.1-4.8,6.1
				s3.1,5.1,6.1,4.8c3-0.4,5.1-3.1,4.8-6.1C93.5,145.3,91.1,143.2,88.4,143.2"/>
			<path id="Path_22" class="st3" d="M72.3,202.6c-6.9,0-12.5-5.6-12.5-12.5s5.6-12.5,12.5-12.5c6.3,0,11.6,4.7,12.4,11l0,0
				c0.9,6.9-4,13.1-10.9,14c0,0,0,0,0,0C73.4,202.6,72.8,202.6,72.3,202.6 M72.3,184.6c-3,0-5.5,2.5-5.5,5.5s2.5,5.5,5.5,5.5
				s5.5-2.5,5.5-5.5c0-0.2,0-0.5,0-0.7C77.4,186.7,75.1,184.6,72.3,184.6"/>
			<path id="Path_23" class="st3" d="M1415.3,49c-6.9,0-12.5-5.6-12.5-12.5c0-6.9,5.6-12.5,12.5-12.5c6.9,0,12.5,5.6,12.5,12.5
				C1427.8,43.4,1422.2,49,1415.3,49 M1415.3,31c-3,0-5.5,2.5-5.5,5.5c0,3,2.5,5.5,5.5,5.5s5.5-2.5,5.5-5.5
				C1420.8,33.5,1418.3,31,1415.3,31"/>
			<path id="Path_24" class="st2" d="M62.9,190.6c-2.8-1.6-27.8-16.4-34.6-25.1C19.3,153.9,18.1,138,18,131l-33.9-1.7l0.4-7l40.8,2
				l-0.2,3.6c0,0.2-1.1,20.5,8.8,33.4c5,6.5,25.2,19,32.6,23.3L62.9,190.6z"/>
			<path id="Path_25" class="st2" d="M24.9,130.1l-6.8-1.5c0.2-0.7,4.3-18.4,17.3-28.4C50,88.9,68.2,88.2,68.9,88.2l0.2,7
				c-0.2,0-16.7,0.7-29.5,10.5C28.6,114.1,24.9,129.9,24.9,130.1"/>
			<path id="Path_26" class="st2" d="M80,147c-0.2-0.1-16.2-7.2-30.7-10.2c-9-1.9-18.2-3.2-27.4-3.9l0.4-7c9.5,0.7,19,2.1,28.4,4.1
				c15.2,3.2,31.5,10.4,32.2,10.7L80,147z"/>
			<path id="Path_27" class="st2" d="M1292.3,93.3c-5.9-0.1-11.6-1.9-16.3-5.4c-35.2-24.3-47-126.9-47-170h7
				c0,46.6,12.9,142.7,44,164.2c6.5,4.5,13.3,5.3,20.8,2.5c56.3-21.2,65.8-167.3,65.8-168.8l7,0.4c-0.4,6.2-9.8,152.1-70.4,174.9
				C1299.7,92.6,1296,93.3,1292.3,93.3"/>
			<path id="Path_28" class="st2" d="M759.9-4c-11.8,0-23.5-0.9-35.1-2.6c-25.4-3.7-48.6-13.7-65.3-28.2
				c-16.3-14-25.2-30.9-25.2-47.4h7c0,27.7,31.6,60.9,84.6,68.7c52.2,7.6,103.8-3,131.6-27c12.9-11.2,19.8-24.6,19.8-38.8h7
				c0,16.3-7.7,31.5-22.2,44.1C838.7-15,801.4-4,759.9-4"/>
			<path id="Path_29" class="st2" d="M616.9,109.7c-18.1,0-34.1-8.8-47.8-26.2c-11-14-20.4-33.5-27.9-58
				c-13.1-42.5-17.4-89.7-17.4-105.9h7c0,15.9,4.2,62.1,17.1,103.9c11.2,36.2,32.2,79.2,69,79.2c79.4,0,96.8-129.2,96.8-179h7
				c0,27.2-5,72.5-19,110.5c-8.3,22.4-18.8,40.2-31.4,52.7C655.2,102,637.2,109.7,616.9,109.7"/>
			<path id="Path_36" class="st2" d="M1728.1,777.7l-88.6-200.3l96.8-49.6l139.4,152.8L1728.1,777.7z M1648.6,580.6l82.6,186.7
				l133.8-88.1l-130.3-142.7L1648.6,580.6z"/>
			<path id="Path_37" class="st2" d="M1661,567.2c-0.6-0.7-14.3-18.5-11.4-34.6c1.2-6.8,5.1-12.2,11.5-16.2
				c10.3-6.4,20.2-8.1,29.6-5.2c17.6,5.6,26.3,25.8,26.7,26.6l-6.5,2.7c-0.1-0.2-7.9-18.1-22.4-22.7c-7.3-2.3-15.3-0.8-23.7,4.4
				c-4.7,2.9-7.4,6.7-8.3,11.5c-2.3,13,9.9,28.9,10,29.1L1661,567.2z"/>
			<path id="Path_38" class="st2" d="M1717.3,751.1l-89.2-37.5l-30.8,13.7l17.5-59.4l21.4,12.6l55.9,3.1l-0.4,7l-57.6-3.2l-15.1-8.9
				l-10.6,36.2l19.8-8.8l92,38.7L1717.3,751.1z"/>
			<path id="Path_39" class="st2" d="M952.5-79.2c0,0-45.2,90.4-21.5,101.4c31.2,14.4,29.2-18.9,39.8-9.4
				c16.8,15.1-3.6,66,17.5,73.4c27.7,9.8,17.4-19.1,29.1-15.8c21,6,28.5,71,55.1,67.7c29.4-3.7,8-34.6,27.2-34.7
				c20.5-0.2,52,63.8,74.6,43.5c28.3-25.4-32.1-53.5-21.3-67.6c5.1-6.6,22.9,0.9,22.9-24.1c0-19.2-58.2-36.1-50-53.5
				c4.6-9.7,33.5,9.2,39.3-17.2c4.8-22-34.2-60.7-34.2-60.7L952.5-79.2z"/>
			<path id="Path_40" class="st0" d="M1172.4,148.5c-0.6-0.7-63.7-72.3-104.7-135.7c-20.3-31.4-56-88.9-56.4-89.5h7.5
				c0.4,0.6,32.8,55.5,53.1,86.8c40.9,63.2,103.7,134.4,104.3,135.1L1172.4,148.5z"/>
			<path id="Path_41" class="st0" d="M1073.6,138.7c-0.7-1.2-17.9-30.1-18.8-52.4c-1.6-42.4,21.4-62.5,22.3-63.3l3.3,3.8l-1.6-1.9
				l1.6,1.9c-0.2,0.2-22.1,19.5-20.6,59.3c0.8,21,17.9,49.8,18.1,50L1073.6,138.7z"/>
			<path id="Path_42" class="st0" d="M1163.8-7.9c-0.3-0.2-34.1-22.3-69.7-26.8c-21.9-2.8-47.6,5.2-47.8,5.3l-1.5-4.8
				c1.1-0.3,26.9-8.4,50-5.5c36.8,4.6,70.5,26.6,71.9,27.6L1163.8-7.9z"/>
			<path id="Path_43" class="st4" d="M495.7,118.8c-1-1-24.8-25.9-56.3-117.1c-16.1-46.6-13-74.7-12.8-76.1h7.3
				c0,0.3-3.3,28.8,12.2,73.8c30.8,89.3,54.4,114.3,54.7,114.5L495.7,118.8z"/>
			<path id="Path_44" class="st4" d="M492.2,106.2c-0.8-0.1-1.6,0.4-1.7,1.3c0,0.2,0,0.3,0,0.5c1.2,6.8,1.6,24,11.1,34.2
				c9.7,10.4,25,8.6,31.4,9.6c0.8,0.1,1.6-0.4,1.7-1.2c0-0.2,0-0.3,0-0.5c-1-6.8-2-19.8-12.9-30.7
				C512.3,109.7,498.8,107.1,492.2,106.2"/>
			<path id="Path_45" class="st4" d="M469.2,57.5c-0.8,0.3-1.2,1.2-0.9,1.9c0.1,0.2,0.1,0.3,0.2,0.4c4.4,5.3,13.2,20.1,26.5,24.3
				c13.5,4.3,26-4.8,32.1-7.1c0.8-0.3,1.2-1.2,0.9-1.9c-0.1-0.1-0.1-0.3-0.2-0.4c-4.2-5.4-11.4-16.3-26.3-20.4
				C488.5,50.7,475.4,55.1,469.2,57.5"/>
			<path id="Path_46" class="st4" d="M447.5,20.8c-0.1-0.8-0.8-1.4-1.7-1.3c-0.2,0-0.3,0.1-0.5,0.1c-6.2,2.9-22.7,7.9-30,19.7
				c-7.5,12.1-1.6,26.4-0.9,32.8c0.1,0.8,0.8,1.4,1.7,1.3c0.2,0,0.3-0.1,0.4-0.1c6.2-2.8,18.6-7.1,26.2-20.5
				C449.4,41.1,448.3,27.4,447.5,20.8"/>
			<path id="Path_47" class="st4" d="M436.2-28.9c-0.8,0.2-1.3,1-1.1,1.8c0,0.2,0.1,0.3,0.2,0.4C439-20.8,446-5.1,458.7,0.7
				c12.9,5.9,26.4-1.7,32.7-3.2c0.8-0.2,1.3-1,1.1-1.8c0-0.2-0.1-0.3-0.2-0.4c-3.5-5.9-9.4-17.5-23.6-23.4
				C456.2-33.3,442.7-30.5,436.2-28.9"/>
			<path id="Path_48" class="st4" d="M429.3-67c0-0.8-0.8-1.5-1.6-1.4c-0.2,0-0.3,0-0.5,0.1c-6.4,2.6-23.1,6.6-31.1,18
				C388-38.7,393-24,393.3-17.5c0,0.8,0.7,1.5,1.6,1.4c0.2,0,0.3,0,0.5-0.1c6.4-2.4,18.9-6.1,27.3-19C430-46.6,429.7-60.4,429.3-67"
				/>
			<path id="Path_49" class="st4" d="M1933.3,540.8c-1.4-0.3-34.8-7.4-74.9-36.1c-78.4-56.2-95.5-86.2-96.1-87.4l6.1-3.4
				c0.2,0.3,17.4,30.1,94.1,85.1c38.8,27.8,71.9,34.8,72.2,34.9L1933.3,540.8z"/>
			<path id="Path_50" class="st4" d="M1773.4,424.2c-0.1,0.8-0.9,1.4-1.7,1.3c-0.2,0-0.3-0.1-0.5-0.1c-6.2-3.1-22.5-8.4-29.6-20.4
				c-7.2-12.2-1-26.4-0.2-32.9c0.1-0.8,0.9-1.4,1.7-1.3c0.2,0,0.3,0.1,0.4,0.1c6.2,2.9,18.4,7.6,25.7,21.1
				C1775.7,404,1774.3,417.7,1773.4,424.2"/>
			<path id="Path_51" class="st4" d="M1813.4,460.2c-0.5,0.7-1.4,0.8-2.1,0.3c-0.1-0.1-0.2-0.2-0.3-0.4
				c-3.9-5.7-15.5-18.4-15.7-32.3c-0.3-14.2,12.1-23.5,16-28.7c0.5-0.7,1.4-0.8,2.1-0.3c0.1,0.1,0.2,0.2,0.3,0.3
				c4,5.6,12.3,15.6,12,31C1825.5,443.7,1817.5,454.9,1813.4,460.2"/>
			<path id="Path_52" class="st4" d="M1842.4,491.5c0.8,0.3,1.1,1.2,0.8,2c-0.1,0.1-0.2,0.3-0.3,0.4c-4.6,5.1-14,19.5-27.5,23.1
				c-13.7,3.7-25.8-6-31.7-8.5c-0.8-0.3-1.1-1.2-0.8-2c0.1-0.1,0.1-0.3,0.2-0.4c4.4-5.2,12.1-15.7,27.1-19.2
				C1823.5,483.9,1836.3,488.9,1842.4,491.5"/>
			<path id="Path_53" class="st4" d="M1886.8,516.5c-0.4,0.7-1.3,1-2.1,0.5c-0.1-0.1-0.3-0.2-0.4-0.3c-4.5-5.2-17.6-16.4-19.5-30.2
				c-2-14,9.1-24.8,12.4-30.4c0.4-0.7,1.3-1,2-0.6c0.1,0.1,0.3,0.2,0.4,0.3c4.6,5.1,14.1,14,15.7,29.3
				C1896.7,498.6,1890.2,510.8,1886.8,516.5"/>
			<path id="Path_54" class="st4" d="M1921.3,534c0.8,0.3,1.2,1.1,0.9,1.9c-0.1,0.2-0.1,0.3-0.2,0.4c-4.3,5.4-12.9,20.3-26.1,24.7
				c-13.5,4.5-26.1-4.5-32.2-6.7c-0.8-0.3-1.2-1.1-0.9-1.9c0.1-0.1,0.1-0.3,0.2-0.4c4.1-5.4,11.2-16.4,26-20.7
				C1902,527.5,1915.1,531.7,1921.3,534"/>
			
				<rect id="Rectangle_11" x="336.1" y="-76.4" transform="matrix(0.9996 -2.703186e-02 2.703186e-02 0.9996 1.2379 9.1664)" class="st2" width="7" height="70.3"/>
			<path id="Path_55" class="st2" d="M322.3,12.9l-0.4-10.5c-0.2-4.8,3.6-8.9,8.4-9.1l19.5-0.8c4.8-0.2,8.9,3.6,9.1,8.4l0.4,10.5
				c0.2,4.8-3.6,8.9-8.4,9.1l-19.5,0.8C326.6,21.5,322.5,17.8,322.3,12.9"/>
			
				<rect id="Rectangle_12" x="332" y="18.6" transform="matrix(0.9992 -3.913774e-02 3.913774e-02 0.9992 -0.747 13.1028)" class="st2" width="4.5" height="14"/>
			
				<rect id="Rectangle_13" x="344.8" y="18.1" transform="matrix(0.9992 -3.913774e-02 3.913774e-02 0.9992 -0.7176 13.6022)" class="st2" width="4.5" height="14"/>
			
				<rect id="Rectangle_14" x="-4.6" y="253.3" transform="matrix(0.9996 -2.699696e-02 2.699696e-02 0.9996 -6.9213 0.9187)" class="st2" width="70.3" height="7"/>
			<path id="Path_56" class="st2" d="M84.7,274.2l-10.5,0.4c-4.8,0.2-8.9-3.6-9.1-8.4l-0.8-19.5c-0.2-4.8,3.6-8.9,8.4-9.1l10.5-0.4
				c4.8-0.2,8.9,3.6,9.1,8.4l0.8,19.5C93.3,269.9,89.5,274,84.7,274.2"/>
			
				<rect id="Rectangle_15" x="90.4" y="259.9" transform="matrix(0.9992 -3.900933e-02 3.900933e-02 0.9992 -10.1524 3.9988)" class="st2" width="14" height="4.5"/>
			
				<rect id="Rectangle_16" x="89.9" y="247.1" transform="matrix(0.9992 -3.900933e-02 3.900933e-02 0.9992 -9.6546 3.9696)" class="st2" width="14" height="4.5"/>
			<path id="Path_57" class="st2" d="M213.8-20.2c-23.9,0-46-9.6-63.9-27.8c-8.6-8.7-15.7-18.7-21-29.6l6.4-2.8
				c5.1,10.2,11.7,19.6,19.8,27.7c17.7,17.9,38.6,26.5,62.3,25.5c66.9-2.9,100-54.2,100.3-54.7l5.9,3.7c-0.4,0.6-8.9,14-26.2,27.9
				c-22.7,18.3-50.6,28.8-79.7,30.1C216.4-20.2,215.1-20.2,213.8-20.2"/>
			<path id="Path_58" class="st2" d="M52.2,60.2c-8.5,0-16.9-0.7-25.3-2.1c-25-4-41.9-12.4-42.6-12.8l3.1-6.3
				c0.3,0.1,16.9,8.3,40.8,12.2c22,3.5,54.8,4,86.4-13.9C172,4.8,194.8-80.1,195.1-81l6.8,1.8c-4.8,16.7-11.1,32.9-19,48.3
				c-12.2,24.1-33.3,56.5-64.7,74.3C95.3,56.3,72,60.2,52.2,60.2 M-14.2,42.2l1.6-3.1l0,0L-14.2,42.2z"/>
			<path id="Path_59" class="st2" d="M1925.7,342.2c-16-4.8-31.2-12.1-45.1-21.5c-30-20.4-46.4-47.5-47.4-78.6
				c-2-59,24.4-89.8,46.9-105.3c24.3-16.7,48.8-19.5,49.8-19.6l0.7,7c-16.8,2.6-32.8,8.9-46.8,18.5c-30.5,21.1-45.1,54.4-43.6,99.1
				c1,29.1,15.9,53.6,44.2,72.9c13.3,9,27.8,15.9,43.1,20.6L1925.7,342.2z"/>
		</g>
	</g>
</g>
<path id="Path_60" class="st2" d="M1612.1,761.1c0,0-110.8-12.9-147.8,15.9s42.8,134.6-75.5,176.1s-297.3-21-398.2,33.6
	s201.9,158.4-16.1,240.7S2.6,1315.9,2.6,1315.9h1917.1c0,0-349.5-6.6-466-51.7s-39-56.2-64.9-98.8s-162.9-65.8-142.1-103
	s233.5-28.7,290-75.6s-11.2-127.2-11-162.3s77.5-32.1,77.5-32.1L1612.1,761.1z"/>
<rect x="-2.4" y="1313.8" class="st2" width="1926.1" height="44.9"/>
</svg>
